<svg preserveAspectRatio="none" width="100%" height="100%" overflow="visible" style="display: block;" viewBox="0 0 33.001 33" fill="none" xmlns="http://www.w3.org/2000/svg">
<path id="Union" d="M16.501 0C25.5887 0.000155536 33.001 7.41258 33.001 16.5C33.001 25.5874 25.5887 32.9998 16.501 33C7.41308 33 0 25.5875 0 16.5C4.50535e-07 7.41248 7.41308 0 16.501 0ZM16.501 0.658203C7.77549 0.658203 0.658204 7.77488 0.658203 16.5C0.658203 25.2251 7.77549 32.3418 16.501 32.3418C25.2263 32.3416 32.3428 25.225 32.3428 16.5C32.3428 7.77497 25.2263 0.658359 16.501 0.658203ZM16.123 28.2207L16.0508 30.416C16.0439 30.6235 16.0861 30.7754 16.1719 30.875C16.2589 30.9759 16.3731 31.0285 16.5195 31.0342C16.6648 31.0397 16.7853 30.994 16.8779 30.9014C16.9706 30.8073 17.0204 30.6592 17.0273 30.4531L17.0986 28.2588L17.4854 28.2725L17.4141 30.4688L17.415 30.4678C17.4053 30.7579 17.3277 30.9845 17.1826 31.1504C17.0374 31.3135 16.8135 31.3899 16.5107 31.3789C16.2079 31.3678 15.9891 31.2752 15.8535 31.0996C15.7207 30.9253 15.6567 30.6928 15.665 30.4023L15.7373 28.2061L16.123 28.2207ZM19.6172 31.0527L19.2715 31.1064L18.1836 29.0098L18.3486 31.2598L17.9395 31.3193L17.6982 28.1631L18.1699 28.1191L19.0684 29.5889L18.9023 28.0068L19.2432 27.9482L19.6172 31.0527ZM12.4883 28.1299C12.7275 27.9226 13.0909 27.806 13.4131 27.9082C13.7603 28.0189 13.9849 28.4455 13.8867 29.0361L13.4727 29.001C13.5431 28.7493 13.5072 28.3557 13.2598 28.2754C13.0592 28.2104 12.8362 28.2726 12.6924 28.4316C12.55 28.5908 12.4113 28.8893 12.2744 29.333C12.1458 29.7506 12.109 30.0577 12.167 30.25C12.2237 30.4435 12.3218 30.5627 12.46 30.6084C12.5983 30.6527 12.7235 30.6347 12.8369 30.5518C12.9502 30.4729 13.0413 30.3151 13.1104 30.0898L13.168 29.9033L12.6729 29.7441L12.7744 29.4219L13.5859 29.6855L13.126 31.1807V31.1787L12.8545 31.0898L12.8789 30.8369C12.8167 30.8921 12.7324 30.9262 12.6289 30.9414C12.5238 30.958 12.4186 30.9486 12.3135 30.9141C12.0895 30.8407 11.9262 30.6666 11.8184 30.3887C11.7105 30.112 11.7324 29.7271 11.8818 29.2402C12.0451 28.7092 12.249 28.3387 12.4883 28.1299ZM20.7959 30.7236L20.3916 30.8447L19.5498 27.8584L19.9551 27.7354L20.7959 30.7236ZM11.2842 27.084L11.1074 29.209L12.0537 27.4531L12.4053 27.5996L10.9609 30.5312L10.542 30.3359L10.7861 28.1006L9.86914 29.9805L9.45215 29.7881L10.9053 26.9102L11.2842 27.084ZM22.3984 30.2354L22 30.4316L20.252 27.6318L20.6367 27.4697L21.8516 29.3799L21.5146 27.0996L21.8867 26.9375L22.3984 30.2354ZM10.2676 26.6328L9.03223 29.6309L8.63379 29.4062H8.63574L9.04102 28.5449L8.54883 28.1875L7.81836 28.9004L7.48145 28.6416L9.80273 26.3496L10.2676 26.6328ZM23.6328 26.3955L22.5615 26.9746L23.0596 27.8281L24.043 27.2969L24.2217 27.6045L23.2383 28.1338L23.8105 29.1191L24.9531 28.501L25.1318 28.8066L23.6572 29.6025L22.0527 26.8477L23.4541 26.0898L23.6328 26.3955ZM24.8828 25.3193C25.472 25.3899 25.7225 25.7866 25.6963 26.2471C25.688 26.3937 25.6802 26.5354 25.6221 26.6807L26.8096 27.6279L26.8115 27.6289L26.4873 27.9053L25.3447 26.96L25.0488 27.2266L25.8213 28.2764L25.4971 28.6152L23.6064 25.9609L24.21 25.5293C24.4021 25.3912 24.6548 25.2932 24.8828 25.3193ZM9.08105 25.9043L7.10156 28.3359L6.76074 28.0479L8.73926 25.6162L9.08105 25.9043ZM8.83203 27.8271L9.22754 28.123L9.71191 27.0127L9.66699 26.9746L8.83203 27.8271ZM8.41602 25.3926L6.86133 26.9307L6.8623 26.9316C6.58566 27.2083 6.328 27.3497 6.08594 27.3594C5.84686 27.3676 5.62986 27.2722 5.43359 27.0732C5.25654 26.892 5.16756 26.6815 5.16895 26.4395C5.16896 26.3164 5.20624 26.1915 5.27539 26.0615L5.62891 26.2773C5.59709 26.3382 5.58105 26.3954 5.58105 26.4521C5.57833 26.5835 5.61781 26.6926 5.70215 26.7783C5.82092 26.8984 5.94637 26.9542 6.07617 26.9434C6.20751 26.9323 6.3671 26.834 6.55371 26.6475L8.12207 25.0947L8.41602 25.3926ZM15.0596 25.126C15.3346 25.1647 15.5448 25.2403 15.6914 25.3564C15.838 25.4712 15.8962 25.6032 15.8672 25.7471C15.8491 25.8354 15.792 25.9157 15.6953 25.9902C15.5985 26.0648 15.4714 26.1149 15.3125 26.1426V26.1494C15.4756 26.2282 15.5962 26.3109 15.6709 26.3994C15.7456 26.4879 15.7716 26.592 15.748 26.7109C15.7134 26.8782 15.5916 27.0037 15.3828 27.0908C15.1713 27.1765 14.9267 27.2017 14.6475 27.1631L14.4346 27.1211C14.3679 27.1045 14.3051 27.0853 14.2471 27.0625C14.1295 27.0169 14.0341 26.9595 13.958 26.8945C13.8849 26.8296 13.8336 26.7579 13.8018 26.6807C13.7741 26.6032 13.7684 26.524 13.7822 26.4424C13.8044 26.3373 13.8685 26.246 13.9736 26.1699C14.0773 26.0939 14.2181 26.0412 14.3936 26.0107L14.3965 26.0029C14.2596 25.9255 14.163 25.8505 14.1035 25.7744C14.0455 25.6984 14.0276 25.6112 14.0469 25.5117C14.0759 25.3637 14.1866 25.254 14.3789 25.1807C14.5698 25.1074 14.7968 25.0886 15.0596 25.126ZM17.8691 25.1064C18.0045 25.1065 18.1287 25.1229 18.2393 25.1533C18.3499 25.1838 18.4457 25.228 18.5273 25.2861C18.6295 25.358 18.708 25.4534 18.7646 25.5693C18.82 25.6869 18.8496 25.8368 18.8496 26.0166C18.8496 26.1797 18.8219 26.3349 18.7666 26.4814C18.7113 26.6279 18.6309 26.7499 18.5244 26.8467C18.4096 26.949 18.2723 27.0271 18.1133 27.0811C17.9528 27.1336 17.7566 27.1611 17.5215 27.1611C17.4689 27.1611 17.412 27.1586 17.3525 27.1572C17.2932 27.1517 17.2366 27.1454 17.1855 27.1357V26.8809H17.2061C17.2393 26.8933 17.2908 26.9073 17.3613 26.917C17.4303 26.928 17.5021 26.9336 17.5752 26.9336C17.8352 26.9336 18.0405 26.8765 18.1885 26.7617C18.3363 26.6483 18.421 26.4853 18.4404 26.2725C18.3353 26.3209 18.2322 26.3548 18.1367 26.377C18.0414 26.399 17.9365 26.4101 17.8232 26.4102C17.7099 26.4102 17.6143 26.4019 17.5244 26.3867C17.4345 26.3701 17.3432 26.3396 17.252 26.2939C17.1441 26.2414 17.0647 26.1728 17.0107 26.0898C16.9568 26.0069 16.9297 25.9071 16.9297 25.791L16.9316 25.7129C16.941 25.6399 16.9637 25.5719 17.001 25.5098C17.0521 25.4255 17.1204 25.3528 17.2061 25.292C17.2877 25.2339 17.3889 25.1881 17.5078 25.1562C17.6267 25.1231 17.7474 25.1064 17.8691 25.1064ZM14.625 26.1113C14.5035 26.1445 14.4053 26.1891 14.332 26.2539C14.2587 26.3161 14.2127 26.3915 14.1934 26.4814C14.1686 26.6002 14.2059 26.7038 14.2998 26.7949C14.3939 26.8876 14.5244 26.9443 14.6904 26.9678C14.8604 26.9912 15.003 26.9759 15.1191 26.9248C15.235 26.8736 15.3046 26.791 15.3281 26.6777C15.3447 26.5975 15.3337 26.5291 15.2949 26.4766C15.2548 26.4212 15.1696 26.3617 15.041 26.2939C14.9996 26.2719 14.9416 26.2461 14.8701 26.2158C14.7982 26.1854 14.7149 26.1501 14.625 26.1113ZM24.6865 25.7461C24.4872 25.7397 24.3222 25.8962 24.1709 26.0137L24.7988 26.8447C24.991 26.7065 25.0814 26.6775 25.2266 26.4258C25.2888 26.1243 25.1542 25.8625 24.7725 25.7588L24.6865 25.7461ZM25.4492 24.3135C25.6926 23.9321 26.2094 23.8793 26.5869 24.1016L26.4404 24.4492C26.2371 24.3414 25.8748 24.3417 25.7393 24.5547C25.6676 24.6651 25.643 24.7782 25.665 24.8955C25.7121 25.1486 25.8846 25.2969 26.1279 25.2666C26.5374 25.2168 26.8143 24.8811 27.2168 24.8936C27.4076 24.9005 27.6355 24.9474 27.8291 25.0635L27.9453 25.1475C28.4674 25.5995 28.2814 26.5927 27.4697 26.7158C27.236 26.7504 26.9623 26.6797 26.8447 26.6064L26.9922 26.2705C27.136 26.3023 27.2805 26.3534 27.416 26.3271C27.9775 26.2206 27.9524 25.6371 27.626 25.3965C27.5126 25.3109 27.3493 25.3008 27.2139 25.3174C26.8363 25.3589 26.5928 25.6417 26.1709 25.668C25.7105 25.6969 25.3897 25.4161 25.3135 24.9668C25.2734 24.7303 25.3303 24.5002 25.4492 24.3135ZM11.9375 24.2441C12.0924 24.3396 12.2153 24.3942 12.3066 24.4053C12.3979 24.4191 12.4758 24.3816 12.5381 24.2959L12.7725 24.4404L11.8945 25.9697L12.293 26.2168L12.1943 26.3896V26.3887L11.0967 25.708L11.1963 25.5361L11.6035 25.7891L12.2568 24.6514L11.8486 24.3984L11.9375 24.2441ZM21.2324 24.0977L21.2344 24.0996L21.1611 26.1357L20.8496 26.332L20.877 24.4062L19.6875 24.9834L19.582 24.7549L21.0781 23.9775L21.2324 24.0977ZM17.8662 25.3232C17.7016 25.3232 17.573 25.3626 17.4775 25.4414C17.3794 25.5188 17.3321 25.6304 17.332 25.7783C17.332 25.8613 17.3461 25.9304 17.3779 25.9844C17.4097 26.0383 17.4623 26.0843 17.5342 26.123C17.5838 26.1492 17.6417 26.168 17.7051 26.1777C17.7687 26.1874 17.8369 26.1924 17.9102 26.1924C17.9959 26.1924 18.0873 26.1825 18.1855 26.1631C18.2837 26.1423 18.3695 26.1158 18.4414 26.084C18.4428 26.0702 18.4459 26.0533 18.4473 26.0312C18.4486 26.0092 18.4492 25.9855 18.4492 25.958L18.4453 25.8613C18.4385 25.7698 18.4206 25.6923 18.3926 25.6289C18.3539 25.5446 18.3042 25.4792 18.2393 25.4336C18.1813 25.3909 18.1232 25.3637 18.0625 25.3457C18.0031 25.3305 17.938 25.3233 17.8662 25.3232ZM7.45605 24.3604L7.15723 24.5459L6.41797 23.5137L5.58398 24.0332L6.26367 24.9805L5.96484 25.166L5.28516 24.2168L4.3252 24.8125L5.11523 25.915L4.81641 26.1006L3.79688 24.6777L6.48633 23.0078L7.45605 24.3604ZM15.0195 25.3193C14.8729 25.2986 14.7467 25.308 14.6416 25.3467C14.5365 25.3854 14.476 25.4492 14.458 25.5391C14.4442 25.6027 14.4579 25.6607 14.498 25.7119C14.5354 25.7631 14.5986 25.8149 14.6885 25.8633C14.7258 25.884 14.7853 25.9139 14.8652 25.9512C14.9468 25.9899 15.0207 26.0186 15.0898 26.0449C15.2182 26.0035 15.3093 25.954 15.3633 25.8975C15.4186 25.8421 15.4531 25.7742 15.4697 25.6953C15.4877 25.6083 15.4575 25.5299 15.3789 25.458C15.3001 25.3875 15.1784 25.3415 15.0195 25.3193ZM29.2207 24.6562L28.9844 24.9482L26.2666 23.2432L26.5039 22.9521L29.2207 24.6562ZM15.4717 12.6904C15.7446 11.7434 17.8152 12.0865 18.4805 12.7158L17.3447 13.1348L18.0205 14.6572C18.4645 13.6185 19.0652 12.4727 20.2354 12.4727L24.2451 12.4775C23.7153 13.4126 23.208 13.7505 21.3379 13.6689L21.0918 14.3145L23.1455 14.3232C22.5398 15.4419 22.1898 15.488 20.5371 15.4424L20.1865 16.2139L21.8008 16.2705C21.455 17.0602 21.09 17.4009 19.7041 17.3359L19.4346 18.0205L20.7178 18.0283C20.2351 18.8222 19.9961 19.1875 18.9795 19.0977L18.707 19.8428H19.5947C19.2116 20.7031 18.7646 20.7385 18.2168 20.8242C17.7248 20.9008 17.6533 21.8203 18.2285 22.1162L16.499 24.9199L14.7715 22.1162C15.3441 21.8216 15.2733 20.9003 14.7822 20.8242C14.236 20.7385 13.7878 20.7015 13.4033 19.8428H14.2939L14.0205 19.0977C13.0026 19.1875 12.7648 18.8224 12.2822 18.0273L13.5664 18.0205L13.2969 17.3359C11.9111 17.3995 11.5474 17.0602 11.2002 16.2705L12.8145 16.2119L12.4639 15.4404C10.8114 15.4874 10.4612 15.4405 9.85547 14.3232L11.9082 14.3115L11.6631 13.667C9.79046 13.7472 9.28561 13.411 8.75586 12.4746H12.8271C14.0538 12.4763 14.5975 13.7711 14.9834 14.6562L15.4717 12.6904ZM5.72656 21.6484L4.51953 22.2695L4.94336 23.0967L6.15234 22.4756L6.32422 22.8105L3.45703 24.2832L3.28516 23.9512L4.62598 23.2607L4.20117 22.4336L2.85938 23.123L2.6875 22.7891L5.55566 21.3145L5.72656 21.6484ZM27.8506 21.2178L27.5488 21.7773L30.1162 23.2861L29.9434 23.6064L27.376 22.0967L27.0752 22.6543L26.7549 22.4658L27.5293 21.0303L27.8506 21.2178ZM16.501 7.38086C21.5234 7.38103 25.6201 11.4778 25.6201 16.5C25.6201 17.8858 25.3074 19.1995 24.75 20.3779C24.1718 21.602 23.3282 22.6774 22.2949 23.5322L22.0859 23.2793C23.0833 22.4563 23.8953 21.4181 24.4541 20.2383C24.9893 19.1042 25.291 17.836 25.291 16.5C25.291 11.659 21.3422 7.70818 16.501 7.70801C11.6596 7.70801 7.70996 11.6575 7.70996 16.5C7.70997 17.836 8.0103 19.1042 8.54688 20.2383C9.10432 21.4181 9.91772 22.4563 10.915 23.2793L10.7061 23.5322H10.7051C9.67318 22.6774 8.8282 21.602 8.25 20.3779C7.69263 19.1995 7.38087 17.8845 7.38086 16.5C7.38086 11.4777 11.4784 7.38086 16.501 7.38086ZM5.41309 20.8945L5.07227 21.0117L2.22168 20.5791L2.70996 21.8887L2.37109 22.0078L1.74805 20.3379L2.08691 20.2197L4.94141 20.6533L4.50488 19.4834L4.84277 19.3662L5.41309 20.8945ZM29.8867 20.4971L30.9326 20.9453L30.8047 21.2979L29.8369 20.9219L27.6055 20.8711L27.7129 20.5137L29.2695 20.5391L28.167 19.5254L28.3203 19.0977L29.8867 20.4971ZM5.51074 7.66602C5.61172 7.67431 5.69517 7.70997 5.80859 7.77637C6.03907 8.07807 5.5527 8.99461 6.00977 9.06836C6.10236 8.91357 5.97448 8.75025 5.90527 8.62305C5.93155 8.39483 6.28267 8.10961 6.53027 8.02246C6.89669 7.99066 6.87518 8.19656 6.87793 8.51172C6.89453 8.55598 6.91171 8.59954 6.92969 8.63965C7.23947 8.86552 7.61053 9.12372 8.04199 9.41504C8.16509 9.60866 8.21331 9.71966 8.26172 9.94922C8.26863 9.95199 8.27767 9.95776 8.2832 9.96191C8.27772 9.97288 8.27306 9.97812 8.26758 9.98633C8.35469 10.1675 8.35894 10.4663 8.14062 10.4941C7.61096 10.1346 7.08517 9.72817 6.56934 9.40039C6.56383 9.41143 6.55957 9.42395 6.55957 9.43359C6.79054 9.6482 7.0962 10.2373 7.10449 10.5664C6.97721 10.7779 6.74324 10.8647 6.53027 10.8066C6.49311 10.7501 6.5068 10.7018 6.5 10.6357C6.34369 10.3605 5.8888 10.0967 5.65918 9.94043C5.57065 10.1216 5.75131 10.6565 5.80664 10.875C5.81631 11.0035 5.82391 11.135 5.83496 11.2607C5.99117 11.4542 6.15297 11.6313 6.32715 11.8262C6.39072 11.9353 6.45572 12.0472 6.52344 12.1592C6.5179 12.1689 6.51253 12.1763 6.50977 12.1846C6.58585 12.3493 6.75411 12.8327 6.43945 12.8359C6.40772 12.818 6.3811 12.8 6.35352 12.7793C6.25531 12.5289 6.06255 12.2574 5.85645 12.1094C5.78313 12.357 5.87726 12.6189 5.75 12.8291C5.64631 12.93 5.53013 13.0211 5.4375 13.0723C5.42668 13.0655 5.42114 13.0614 5.41309 13.0586C5.34971 13.0861 5.26957 13.1055 5.26074 13.1426C5.34927 13.2574 5.44207 13.3754 5.53613 13.4902C5.82796 13.9992 6.15319 14.4464 6.53906 14.9111C6.56247 15.0394 6.55545 15.0744 6.51953 15.167L6.4541 15.1982C6.08241 15.3742 5.36435 15.2077 5.4668 14.7461C5.41986 14.6992 5.39376 14.6124 5.41016 14.5557C5.39909 14.5487 5.39168 14.5438 5.38477 14.541C5.29755 14.0238 5.01833 13.5327 4.86621 13.0459C4.78605 12.8926 4.69035 12.7736 4.75098 12.6064C4.86437 12.5774 4.9905 12.7005 5.08594 12.7959C5.13562 12.7849 5.19221 12.6593 5.21582 12.5791C5.17848 12.2375 5.20616 11.843 5.15918 11.4932C5.07066 11.4185 4.98337 11.3392 4.90039 11.2617C4.83262 11.4374 4.61041 12.0098 4.41406 11.7021C4.468 11.467 4.50147 11.0764 4.37012 10.8398C4.20006 10.6546 3.95666 10.526 3.88184 10.3242C3.91642 10.042 4.34786 9.97683 4.59961 10.0889C4.80263 10.1051 4.80037 9.72286 5.03125 10.3574C5.03689 10.4609 5.13581 10.5246 5.24902 10.584C5.267 10.5619 5.28712 10.5401 5.30371 10.5166C5.29818 10.2469 5.29387 9.95176 5.31738 9.66406C5.06426 9.40956 4.85251 9.19655 4.70312 8.88672C4.70328 8.59085 5.03926 8.41915 5.33105 8.33203C5.42493 8.17317 5.42641 8.0364 5.4209 7.83203C5.43379 7.78877 5.46385 7.73317 5.51074 7.66602ZM28.7051 9.04785C29.2416 9.32991 29.2516 9.33493 29.5088 9.45801L29.5449 9.47461C29.6472 9.45523 29.7634 9.41769 29.8574 9.38867C30.0095 9.34166 30.1812 9.28792 30.3223 9.28516C30.4314 9.28519 30.505 9.3127 30.5479 9.37207C30.534 9.55878 30.4413 9.7392 30.2988 9.8623L30.2598 9.84668L30.252 9.86914C30.162 9.89819 30.0813 9.92457 30.0107 9.97852L29.9102 10.0547L29.9277 10.0625L30.0049 10.0889C30.0298 10.1068 30.05 10.1277 30.0693 10.1484L30.0869 10.1885L30.1426 10.1973C30.177 10.2014 30.2072 10.207 30.2334 10.2139C30.333 10.2388 30.3971 10.2564 30.415 10.291C30.4288 10.316 30.431 10.3761 30.373 10.5195L30.3594 10.5498C30.3828 10.5994 30.3968 10.6351 30.4092 10.6641C30.477 10.8439 30.4573 10.8568 30.2637 10.9785C29.9429 11.0947 29.5062 11.2523 29.1025 11.3809C29.061 11.4058 29.0451 11.418 29.0312 11.4346L28.9883 11.4863C28.9966 11.4877 29.0178 11.5068 29.0635 11.5732C29.0621 11.576 29.0576 11.583 29.0576 11.583C28.9981 11.6991 28.9151 11.8005 28.7686 11.9512C28.7287 11.9635 28.7064 11.9658 28.6816 11.9658C28.5267 11.9658 28.428 11.8924 28.291 11.79L28.2324 11.7461L27.9941 11.6689C27.7217 11.586 27.4989 11.5167 27.25 11.46L27.1914 11.4463L27.1865 11.4746C27.127 11.5341 27.0812 11.5786 27.0508 11.6533L27.0215 11.7236L27.0664 11.7324C27.152 11.8083 27.2336 11.884 27.3164 11.96L27.373 12.0127C27.3855 12.1621 27.2457 12.3038 27.1074 12.3633C26.9665 12.2845 26.8724 12.2276 26.7246 12.1875L26.6816 12.1748C26.6865 12.1765 26.6728 12.1889 26.5 12.3154L26.4541 12.3506C26.4127 12.3961 26.376 12.4421 26.3359 12.4932C26.1506 12.7269 25.898 13.0466 25.667 13.0508H25.6621C25.6207 13.0508 25.5806 13.0392 25.542 13.0186L25.5137 12.9746C25.1914 12.7063 24.9466 12.4267 24.7695 12.1211L24.793 12.0762C24.8524 12.09 24.8946 12.1142 24.9375 12.1377C25.066 12.2096 25.2139 12.292 25.3838 12.292C25.4239 12.2906 25.4535 12.2878 25.4854 12.2822L25.5293 12.2783C25.55 12.2521 25.5794 12.2276 25.6084 12.2041L25.6523 12.166C25.7518 12.0762 25.8391 11.9936 25.915 11.8955L25.9736 11.8154L25.9678 11.8125L25.9053 11.7969C25.6759 11.6049 25.4353 11.5608 25.2031 11.5166C25.0634 11.4903 24.9311 11.4651 24.8066 11.4111C24.6297 11.26 24.4334 10.7414 24.5039 10.5244C24.5703 10.4525 24.6108 10.4165 24.6357 10.4082L24.667 10.4502H24.6719C24.6815 10.4505 24.6936 10.4629 24.71 10.4834C24.7625 10.547 24.828 10.6205 24.9248 10.7021C25.254 10.9192 25.6496 11.0494 26.0312 11.1738C26.1668 11.2181 26.2929 11.2589 26.416 11.3018C26.5484 11.3211 26.5515 11.321 26.5996 11.3389L26.6436 11.3574C26.6477 11.3547 26.6553 11.3506 26.6553 11.3506L26.6621 11.3447C26.6689 11.3406 26.6734 11.3391 26.6816 11.335C26.8087 11.2604 26.8847 11.2315 26.9482 11.2314C27.0312 11.2314 27.1105 11.2629 27.2695 11.3652C27.3756 11.3994 27.5761 11.4492 27.8711 11.5137L27.9141 11.5234C27.9569 11.4861 27.9889 11.4662 28.0234 11.4482L28.1611 11.3799H28.1338L28.0371 11.3301C27.6636 11.0507 27.1887 10.9963 26.7295 10.9424C26.5719 10.9244 26.4393 10.9088 26.3135 10.8867C26.1213 10.7802 26.04 10.6281 25.9902 10.5078L25.9785 10.4785C25.8904 10.4234 25.8338 10.3808 25.791 10.3477L25.7988 10.2979L25.9736 10.3184C26.0592 10.3349 26.1435 10.3501 26.2305 10.3818C26.5984 10.4455 26.9903 10.5493 27.3057 10.6309L27.4824 10.6777C27.5986 10.7068 27.7133 10.738 27.8281 10.7656L27.8916 10.7803L27.8975 10.7441C27.9346 10.7 27.9567 10.6574 27.9678 10.6133C28.0258 10.5525 28.0647 10.5319 28.124 10.5029L28.2793 10.4268L28.2578 10.417L28.2139 10.4043L28.0869 10.3545C28.0524 10.3379 28.0232 10.3223 27.9873 10.3223C27.9707 10.3223 27.9551 10.3241 27.9385 10.3311C27.8474 10.309 27.7784 10.2978 27.7148 10.2881C27.5434 10.2618 27.4737 10.2494 27.4736 10.0879C27.5123 10.0686 27.5361 10.0684 27.5596 10.0684L27.6826 10.0713C27.9205 10.0685 27.9859 9.93781 28.0039 9.86035L28.0117 9.83008C27.9883 9.77352 27.9857 9.73293 28.0078 9.70117C28.0287 9.67365 28.0759 9.65608 28.1338 9.65332C28.1573 9.65332 28.1765 9.65504 28.1973 9.65918C28.2732 9.72959 28.2835 9.73727 28.3857 9.81738L28.4648 9.87988L28.4668 9.87305L28.4824 9.8125C28.5239 9.76547 28.5324 9.74413 28.5352 9.69434L28.5254 9.6377C28.5062 9.60476 28.4973 9.58026 28.4932 9.56641L28.5312 9.53125H28.5293C28.5254 9.53121 28.5327 9.52819 28.5615 9.51172L28.6885 9.44336L28.6846 9.43848L28.6348 9.40039C28.592 9.31892 28.5875 9.23166 28.6191 9.1543C28.6357 9.11149 28.6678 9.07275 28.7051 9.04785ZM4.05566 12.0332C4.51213 12.1342 4.35611 12.7064 4.28418 13.0342L4.23633 13.0283C4.1322 12.9968 4.06896 12.8671 3.97949 12.8018C3.61294 12.6966 3.33616 12.623 3.21582 12.2578C3.23104 12.2246 3.25057 12.191 3.26855 12.1592C3.46083 12.0886 3.81638 12.0443 4.05566 12.0332ZM2.60352 11.0977C2.94517 11.0299 3.45384 10.8166 3.47461 11.3643C3.43865 11.5634 3.37776 11.7656 3.3252 11.9551C3.24792 12.013 3.23222 11.9989 3.19629 11.9961C3.14677 11.9107 3.12878 11.8475 3.04492 11.8115C2.63965 11.8018 2.22028 11.4971 2.29492 11.085C2.36823 11.0006 2.44859 11.052 2.60352 11.0977ZM29.1406 10.1426C29.1074 10.1619 28.9923 10.204 28.7959 10.2686L28.708 10.2979L28.7227 10.3037L28.6963 10.3848L28.6943 10.4199L28.7246 10.4434C28.7495 10.4723 28.7937 10.5067 28.8652 10.5068C28.8831 10.5068 28.8958 10.5043 28.9082 10.5029L28.9287 10.5068C28.97 10.5357 28.9889 10.5547 28.9932 10.5713C28.9835 10.6114 28.9434 10.6524 28.8535 10.7354L28.7881 10.793L28.791 10.7959L28.8291 10.8203L28.8584 10.9082L28.9141 10.8955C29.1215 10.8886 29.3345 10.8551 29.4922 10.667L29.5215 10.6328C29.4897 10.3949 29.2829 10.2049 29.2207 10.1523L29.1631 10.1045L29.1406 10.1426ZM27.5537 8.38379C27.6503 8.40034 27.6991 8.41387 27.7227 8.44824C27.7462 8.4842 27.7381 8.53583 27.7188 8.62988L27.7031 8.66113C27.7043 8.66809 27.7049 8.67557 27.7061 8.68262C27.7154 8.71235 27.7228 8.74662 27.7285 8.78223C27.7561 8.9301 27.7632 9.08211 27.748 9.22168L27.7412 9.27832C27.7329 9.33226 27.7187 9.37835 27.7021 9.42676C27.6441 9.6051 27.5805 9.80731 27.4492 9.9248L27.3955 9.97266L27.3604 9.99316C27.2718 10.0513 27.1747 10.0816 27.082 10.083H27.0742V10.0859C26.9844 10.0859 26.9012 10.0601 26.8252 10.0049C26.7768 9.814 26.9197 9.6078 27.0234 9.45703C27.0594 9.40591 27.0867 9.36561 27.1074 9.33105L27.124 9.28711L27.1582 9.2207C27.1997 9.13915 27.2402 9.05859 27.2803 8.96875C27.2955 8.92172 27.3063 8.87686 27.3174 8.83398C27.3795 8.58553 27.4283 8.42828 27.5537 8.38379ZM26.3926 9.0791C26.4712 9.09712 26.5153 9.14025 26.543 9.21484C26.5982 9.3697 26.5582 9.58799 26.4531 9.71387C26.3051 9.81484 26.2438 9.85702 26.1885 9.8584H26.1875L26.1885 9.85938C26.1443 9.85922 26.0891 9.83419 25.9873 9.76953C25.8517 9.46246 26.3372 9.11783 26.3926 9.0791ZM11.6445 5.25977C11.748 5.08593 11.798 5.02916 12.001 5.16992C12.0743 5.32622 11.8527 5.61153 11.8223 5.79688C11.8223 6.12746 11.8097 6.46784 11.7793 6.81641C11.7627 6.86369 11.7327 7.01441 11.6885 7.26758C11.5779 7.44889 11.4949 7.85277 11.4824 8.07812C11.3401 8.25799 11.3893 8.61493 11.2109 8.81543C11.1627 8.83749 11.1199 8.86192 11.0771 8.88672L10.9639 8.87207C10.6992 8.81864 10.415 8.64183 10.2334 8.52441C10.2306 8.44987 10.2248 8.37395 10.2275 8.30078C10.6397 7.63409 11.0578 6.99709 11.3828 6.26953C11.4451 5.95983 11.5525 5.61965 11.6299 5.30859C11.6354 5.30033 11.6452 5.29167 11.6562 5.28613C11.6508 5.27531 11.6473 5.26796 11.6445 5.25977ZM21.751 6.68457C21.8549 6.31841 22.325 6.45707 22.585 6.64648C22.6306 6.67966 22.6725 6.77051 22.707 6.86035C22.7914 7.083 22.8788 7.39754 22.623 7.55664C22.4017 7.69496 22.0883 7.72109 21.8809 7.62012L21.8105 7.58105C21.6832 7.49298 21.8141 7.43536 21.8262 7.23828C21.8372 7.04464 21.7122 6.82151 21.751 6.68457ZM21.624 2.81055C21.9034 2.38461 22.1163 2.7719 22.3486 3.07617C22.3583 3.11905 22.4144 3.17889 22.4531 3.28125C22.4612 3.28134 22.4682 3.28341 22.4805 3.28613C22.5565 3.51013 22.5689 3.60728 22.334 3.74414C22.1293 4.02908 21.9805 4.36425 21.9072 4.73633C22.2695 4.77228 22.559 4.51607 22.9668 4.6084C23.018 4.82141 22.9672 4.97976 22.75 5.0918C22.4181 5.16232 22.0638 5.21031 21.6904 5.28223C21.53 5.60451 21.2919 5.98751 20.9834 6.20605C20.939 6.23931 20.7247 6.35686 20.6777 6.37207C20.4288 6.44538 20.1949 6.55087 19.9404 6.56055C19.2353 6.58404 19.235 6.5511 19.1133 6.54004L19.0918 6.52051C19.1001 6.49146 19.1079 6.46492 19.1162 6.44141C19.202 6.43172 19.9957 6.15079 19.9971 6.13281C20.2378 6.02354 20.4582 5.88911 20.5771 5.64844C20.0474 5.68717 19.4949 5.93382 18.9775 5.84668C18.7552 5.73055 18.6254 5.56314 18.4775 5.45117C18.4803 5.4403 18.4811 5.43198 18.4824 5.42383C18.2556 5.18184 18.2877 4.95021 18.6084 4.92383C19.0911 5.16312 19.9642 4.98884 20.4912 4.92383C20.6115 4.9017 20.9492 4.86785 21.0586 4.78906C21.3366 4.14173 21.4276 3.44681 21.624 2.81055ZM10.168 5.09375C10.1475 4.74293 10.4559 4.60909 10.7959 4.70703C11.1113 4.89929 11.2973 4.95606 11.2061 5.36133C11.0442 5.67115 10.9388 5.72952 10.6787 5.87891C10.4934 5.81251 10.2482 5.26665 10.168 5.09375ZM14.1543 4.14551C14.3535 4.57153 14.0493 5.20245 13.7188 5.48047C13.3525 5.60607 13.1601 5.41554 12.8809 5.28418C12.8366 5.19012 12.8725 5.11074 12.8545 5.04297C12.9088 5.00519 12.9499 4.96746 12.9775 4.92969C13.1214 4.85085 13.1784 4.836 13.3389 4.7627C13.5269 4.63412 13.915 4.05902 14.1543 4.14551ZM13.1709 2.73145C13.5457 2.49908 13.8202 2.64593 14 3.0332C14.029 3.31806 13.9371 3.58623 13.8486 3.85449C13.68 4.05497 13.5378 4.2612 13.3926 4.46582C13.3387 4.49483 13.2905 4.52722 13.2422 4.55762L13.2129 4.4873C13.1594 4.29656 13.2182 3.94128 13.1299 3.88672C13.0469 3.9351 12.9707 4.00244 12.8809 4.04395C12.6222 4.02457 12.2802 3.85314 12.2871 3.61523C12.3755 3.37073 12.333 3.44083 12.5762 3.32617C12.7726 3.12701 12.9704 2.9306 13.1709 2.73145ZM10.2266 3.04199C10.4495 3.05033 11.24 3.12911 11.2275 3.56055C11.1375 3.86057 10.8294 4.14811 10.5791 4.28223L10.5186 4.24805C10.4768 4.21096 10.4905 4.16333 10.502 4.09277C10.4259 3.92959 10.2725 3.83398 10.1992 3.67773C10.137 3.36246 10.0386 3.277 10.2266 3.04199Z" fill="var(--fill-0, #003F89)"/>
</svg>
