<svg width="47" height="39" viewBox="0 0 47 39" fill="currentColor" xmlns="http://www.w3.org/2000/svg">
<path fill-rule="evenodd" clip-rule="evenodd" d="M17.0176 32.0225C17.1014 32.1809 17.1825 32.3559 17.2617 32.5469C17.3303 32.6992 17.386 32.835 17.4297 32.9531H19.7539V33.583H14.6025V34.8574C14.6025 35.1279 14.5929 35.4287 14.5742 35.7598C14.5602 36.0863 14.53 36.4202 14.4834 36.7607C14.4367 37.1014 14.3689 37.436 14.2803 37.7627C14.1916 38.0845 14.0743 38.3787 13.9297 38.6445C13.8924 38.6072 13.8363 38.562 13.7617 38.5107C13.6918 38.4641 13.6195 38.4177 13.5449 38.3711C13.4706 38.3246 13.4054 38.2921 13.3496 38.2734C13.4849 38.0261 13.5894 37.7571 13.6641 37.4678C13.7433 37.174 13.8015 36.8754 13.8389 36.5723C13.8809 36.2643 13.9067 35.9629 13.916 35.6689C13.9253 35.3752 13.9297 35.1046 13.9297 34.8574V32.9531H16.6846C16.6588 32.8812 16.6297 32.8043 16.5967 32.7227C16.5174 32.5269 16.4386 32.3489 16.3594 32.1904L17.0176 32.0225ZM28.6934 32.4277C28.488 32.5911 28.2567 32.7525 28 32.9111C27.7959 33.0336 27.5976 33.1443 27.4053 33.2432V34.1592L27.7061 34.0938C27.7807 34.3037 27.842 34.5351 27.8887 34.7871C27.9155 34.9166 27.9358 35.0378 27.9512 35.1494V33.2686H28.4131V35.1797C28.4131 35.4874 28.3991 35.7958 28.3711 36.1035C28.3477 36.4113 28.2939 36.7152 28.21 37.0137C28.1306 37.3074 28.0098 37.5921 27.8467 37.8672C27.6834 38.1425 27.4638 38.4019 27.1885 38.6445C27.1512 38.5886 27.095 38.525 27.0205 38.4551C26.9506 38.3899 26.887 38.3413 26.8311 38.3086C27.083 38.0893 27.2843 37.8557 27.4336 37.6084C27.5828 37.3565 27.6949 37.0947 27.7695 36.8242V36.8213C27.6543 36.8574 27.5398 36.8948 27.4258 36.9297C27.2021 36.9996 26.9851 37.0666 26.7754 37.1318L26.6357 36.5586C26.7262 36.5377 26.8243 36.513 26.9297 36.4863V32.7432L27.1748 32.8232C27.3414 32.7235 27.5072 32.6108 27.6709 32.4844C27.8762 32.3257 28.042 32.1783 28.168 32.043L28.6934 32.4277ZM26.0264 37.7549C26.0264 37.9462 26.0005 38.0936 25.9492 38.1963C25.8979 38.3034 25.8093 38.3854 25.6836 38.4414C25.5576 38.4927 25.3865 38.5229 25.1719 38.5322C24.9573 38.5462 24.6845 38.5506 24.3535 38.5459C24.3442 38.462 24.3161 38.3571 24.2695 38.2314C24.2275 38.1055 24.1824 37.9978 24.1357 37.9092C24.2851 37.9185 24.4325 37.926 24.5771 37.9307H24.9551C25.067 37.926 25.1445 37.9229 25.1865 37.9229C25.256 37.9228 25.3028 37.9118 25.3262 37.8887C25.3542 37.8607 25.3682 37.8133 25.3682 37.748V36.4883H23.6602V38.5186H22.9951V36.4883H21.3701C21.349 36.6342 21.3239 36.7818 21.2939 36.9297C21.2286 37.2468 21.1306 37.5529 21 37.8467C20.8741 38.1357 20.7037 38.3968 20.4893 38.6299C20.4566 38.5833 20.4069 38.5324 20.3418 38.4766C20.2813 38.4207 20.2163 38.3666 20.1465 38.3154C20.0814 38.2643 20.0228 38.2243 19.9717 38.1963C20.1675 37.9771 20.3216 37.7411 20.4336 37.4893C20.5455 37.2328 20.6264 36.9687 20.6777 36.6982C20.7337 36.423 20.7692 36.1495 20.7832 35.8789C20.8019 35.6036 20.8115 35.342 20.8115 35.0947V32.5752H26.0264V37.7549ZM4.90723 32.2109C4.81179 32.3779 4.7027 32.5412 4.58105 32.7012H5.70508L5.82422 32.6729L6.24414 32.8691C6.10418 33.2377 5.92214 33.5694 5.69824 33.8633C5.47904 34.1524 5.22682 34.4068 4.94238 34.626C4.87115 34.6809 4.79779 34.7341 4.72363 34.7852L5.27148 34.8848C5.16945 35.0633 5.05198 35.2384 4.9209 35.4102H6.04102L6.16016 35.3818L6.58008 35.5645C6.44011 36.0122 6.24622 36.4044 5.99902 36.7402C5.7518 37.076 5.46514 37.3658 5.13867 37.6084C4.81214 37.851 4.45236 38.0513 4.06055 38.21C3.67324 38.3733 3.26209 38.5045 2.82812 38.6025C2.79553 38.5187 2.74676 38.4203 2.68164 38.3086C2.62103 38.1967 2.55746 38.1051 2.49219 38.0352C2.89333 37.9652 3.27363 37.8628 3.63281 37.7275C3.95184 37.6032 4.24734 37.4522 4.51855 37.2764C4.47901 37.2385 4.43602 37.1994 4.38965 37.1602C4.26833 37.0528 4.13488 36.9474 3.99023 36.8447C3.87627 36.7574 3.76322 36.6801 3.65234 36.6113C3.4643 36.7375 3.26197 36.8584 3.04492 36.9717C3.01701 36.9252 2.98005 36.8732 2.93359 36.8174C2.88706 36.7569 2.83511 36.6984 2.7793 36.6426C2.72805 36.5867 2.67843 36.5446 2.63184 36.5166C2.96317 36.3579 3.25798 36.1825 3.51465 35.9912C3.77119 35.7953 3.98994 35.5918 4.17188 35.3818C4.31458 35.2213 4.43512 35.0633 4.53418 34.9082C4.36883 35.0116 4.19752 35.1076 4.01855 35.1934C3.68736 35.352 3.34159 35.4823 2.98242 35.585C2.9498 35.5057 2.89797 35.415 2.82812 35.3125C2.76301 35.2055 2.70013 35.1212 2.63965 35.0605C2.96608 34.9812 3.28086 34.8735 3.58398 34.7383C3.81364 34.6374 4.03067 34.522 4.23438 34.3926C4.19828 34.3576 4.15898 34.3204 4.11621 34.2832C4.00898 34.19 3.89246 34.0962 3.7666 34.0029C3.66244 33.9188 3.55873 33.8443 3.45801 33.7773C3.28459 33.8975 3.09855 34.0133 2.89844 34.1221C2.87048 34.0755 2.83052 34.0237 2.7793 33.9678C2.75615 33.9377 2.7315 33.9086 2.70605 33.8809L2.5498 33.7246C2.52544 33.7026 2.50173 33.6833 2.47852 33.667C2.92167 33.457 3.29008 33.2094 3.58398 32.9248C3.87795 32.6402 4.10187 32.3624 4.25586 32.0918L4.90723 32.2109ZM42.8682 34.1357L43.4707 34.3389C43.3912 34.5095 43.3008 34.6729 43.2012 34.8291H46.3965V35.417H44.584C44.6498 35.4737 44.7191 35.5302 44.793 35.585C45.045 35.7716 45.328 35.9374 45.6406 36.082C45.9531 36.2219 46.2775 36.3318 46.6133 36.4111C46.5667 36.4485 46.5149 36.5002 46.459 36.5654C46.4078 36.6305 46.359 36.6956 46.3125 36.7607C46.2658 36.8261 46.226 36.8874 46.1934 36.9434C46.0605 36.9049 45.9297 36.8601 45.8008 36.8125V38.5879H45.1924V38.3574H44.1006V38.6025H43.5195V36.2852H44.7344C44.5718 36.1811 44.4163 36.0694 44.2686 35.9492C44.0683 35.7835 43.8879 35.6058 43.7285 35.417H42.7471C42.5827 35.5947 42.4014 35.7608 42.2031 35.9141C42.0303 36.0462 41.8482 36.1693 41.6582 36.2852H42.9102V38.5879H42.3008V38.3574H41.2305V38.6025H40.6426V36.7939C40.5214 36.8433 40.3979 36.8922 40.2715 36.9365C40.2436 36.89 40.2057 36.8337 40.1592 36.7686C40.1126 36.7034 40.0639 36.6396 40.0127 36.5791C39.9615 36.514 39.9118 36.4653 39.8652 36.4326C40.5652 36.1993 41.1744 35.8904 41.6924 35.5078C41.7318 35.4784 41.7699 35.4473 41.8076 35.417H40.0684V34.8291H42.3965C42.5127 34.6825 42.6146 34.5285 42.7031 34.3672H40.5371V32.3789H42.8682V34.1357ZM32.9492 32.498C32.66 32.638 32.3239 32.7618 31.9414 32.8691C31.6443 32.9535 31.3539 33.0276 31.0713 33.0918C31.0289 33.3022 30.9787 33.5081 30.9189 33.709C30.821 34.0543 30.695 34.3482 30.541 34.5908C30.5131 34.5536 30.4708 34.5145 30.415 34.4727C30.359 34.426 30.3031 34.3809 30.2471 34.3389C30.2197 34.3161 30.1939 34.2957 30.1699 34.2773V36.6631C30.1699 36.789 30.159 36.9011 30.1357 36.999C30.1171 37.0922 30.0674 37.1645 29.9883 37.2158C29.9138 37.2717 29.825 37.3072 29.7227 37.3213C29.6202 37.3353 29.4937 37.3418 29.3447 37.3418C29.3447 37.2625 29.3276 37.1623 29.2949 37.041C29.267 36.9153 29.2345 36.8127 29.1973 36.7334C29.2951 36.738 29.3815 36.7402 29.4561 36.7402C29.5353 36.7402 29.5914 36.7381 29.624 36.7334C29.6659 36.7334 29.6874 36.7051 29.6875 36.6494V35.457L29.4072 35.5361C29.3979 35.3449 29.358 35.1207 29.2881 34.8643C29.2503 34.7131 29.2077 34.5688 29.1621 34.4316V38.5879H28.7002V32.7148H30.1699V34.1123C30.2767 33.9262 30.3642 33.7103 30.4297 33.4639C30.509 33.1654 30.5672 32.855 30.6045 32.5332L30.9678 32.5986C31.0769 32.5717 31.1866 32.5432 31.2969 32.5127C31.5209 32.4474 31.7286 32.3764 31.9199 32.3018C32.1159 32.2271 32.2795 32.1528 32.4102 32.0781L32.9492 32.498ZM2.74414 32.6875C2.51561 32.7761 2.26125 32.858 1.98145 32.9326C1.94446 32.942 1.90646 32.9498 1.86914 32.959V34.0596H2.69531V34.6826H1.86914V35.0098C1.91107 35.0448 1.97198 35.1036 2.05078 35.1865L2.33789 35.4736C2.44511 35.5762 2.54107 35.6743 2.625 35.7676C2.70874 35.856 2.76716 35.9209 2.7998 35.9629L2.41504 36.4814C2.37307 36.4068 2.31482 36.3131 2.24023 36.2012C2.1703 36.0893 2.09053 35.975 2.00195 35.8584C1.95745 35.7941 1.91233 35.7322 1.86914 35.6719V38.5811H1.22559V35.7188C1.18021 35.8285 1.13358 35.938 1.08496 36.0469C0.973002 36.3081 0.852291 36.5536 0.72168 36.7822C0.591042 37.0108 0.456591 37.2068 0.321289 37.3701C0.288664 37.2769 0.239977 37.1721 0.174805 37.0557C0.109471 36.9343 0.0513333 36.8332 0 36.7539C0.12599 36.6139 0.24977 36.4482 0.371094 36.2568C0.492397 36.0609 0.609705 35.8531 0.72168 35.6338C0.838229 35.41 0.9407 35.1835 1.0293 34.9551C1.06708 34.8625 1.10136 34.7714 1.13379 34.6826H0.139648V34.0596H1.22559V33.1006C1.19292 33.107 1.15986 33.1148 1.12695 33.1211C0.832977 33.1724 0.547773 33.2187 0.272461 33.2607C0.258448 33.1861 0.232594 33.0998 0.195312 33.002C0.158013 32.9041 0.121284 32.8199 0.0839844 32.75C0.345232 32.708 0.611261 32.6595 0.881836 32.6035C1.15712 32.5429 1.41655 32.4772 1.65918 32.4072C1.90641 32.3326 2.11645 32.2551 2.28906 32.1758L2.74414 32.6875ZM11.5654 33.667H13.1113V33.9824C13.088 34.7009 13.0643 35.3103 13.041 35.8096C13.0177 36.304 12.9919 36.7123 12.9639 37.0342C12.9359 37.3514 12.9014 37.6012 12.8594 37.7832C12.8174 37.9603 12.7656 38.0886 12.7051 38.168C12.6258 38.2752 12.5439 38.3506 12.46 38.3926C12.3807 38.4345 12.2825 38.4647 12.166 38.4834C12.0541 38.4927 11.9117 38.4971 11.7393 38.4971C11.5667 38.5017 11.3889 38.4974 11.207 38.4834C11.1977 38.3901 11.174 38.2824 11.1367 38.1611C11.1041 38.0398 11.0599 37.9322 11.0039 37.8389C11.1859 37.8529 11.3538 37.8625 11.5078 37.8672C11.6665 37.8719 11.7837 37.874 11.8584 37.874C11.9187 37.874 11.9699 37.8674 12.0117 37.8535C12.0536 37.8349 12.0914 37.8045 12.124 37.7627C12.1706 37.7068 12.2105 37.5966 12.2432 37.4336C12.2805 37.2703 12.3107 37.0365 12.334 36.7334C12.362 36.4255 12.3856 36.0333 12.4043 35.5576C12.4183 35.1977 12.4326 34.7797 12.4492 34.3047H11.5439C11.5294 34.5989 11.5089 34.888 11.4805 35.1719C11.4338 35.6339 11.3585 36.0751 11.2559 36.4951C11.1532 36.9104 11.0111 37.2958 10.8291 37.6504C10.6518 38.0003 10.4204 38.3104 10.1357 38.5811C10.1032 38.5252 10.0565 38.4646 9.99609 38.3994C9.94032 38.339 9.87948 38.2804 9.81445 38.2246C9.75379 38.1686 9.69467 38.1235 9.63867 38.0908C9.89995 37.8435 10.113 37.5592 10.2764 37.2373C10.4396 36.9155 10.5657 36.5631 10.6543 36.1807C10.7476 35.798 10.8123 35.3912 10.8496 34.9619C10.8682 34.7463 10.8839 34.5272 10.8955 34.3047H10.0166V33.667H10.9189C10.9193 33.6507 10.9196 33.6345 10.9199 33.6182C10.9293 33.1562 10.9336 32.6869 10.9336 32.2109H11.5918C11.5873 32.7027 11.5785 33.1881 11.5654 33.667ZM32.9492 34.9131C32.7999 35.1324 32.6223 35.3541 32.417 35.5781C32.2784 35.7328 32.1402 35.8699 32.0039 35.9912V36.2852H33.1387V36.8447H32.0039V37.916C32.0039 38.0653 31.9855 38.1848 31.9482 38.2734C31.9155 38.3618 31.8431 38.43 31.7314 38.4766C31.6335 38.5232 31.5022 38.5512 31.3389 38.5605C31.1804 38.5699 30.9915 38.5742 30.7725 38.5742C30.7631 38.4903 30.7394 38.3943 30.7021 38.2871C30.6695 38.1799 30.6349 38.0839 30.5977 38C30.7561 38.0047 30.9008 38.0068 31.0312 38.0068C31.1665 38.0115 31.258 38.0146 31.3047 38.0146C31.3464 38.01 31.3747 38.0003 31.3887 37.9863C31.4025 37.9723 31.4092 37.9463 31.4092 37.9092V36.8447H30.3311V36.2852H31.4092V35.6904H31.5869C31.6581 35.6244 31.7296 35.5547 31.8008 35.4805C31.8767 35.398 31.9487 35.3133 32.0176 35.2285H30.5273V34.6748H32.459L32.5713 34.6475L32.9492 34.9131ZM35.8262 32.4072C35.6535 32.8177 35.4457 33.2238 35.2031 33.625C35.1576 33.7018 35.1106 33.7776 35.0635 33.8525V38.5742H34.3984V34.7861C34.1318 35.1218 33.8588 35.4186 33.5791 35.6758C33.5558 35.6199 33.5212 35.5497 33.4746 35.4658C33.428 35.3772 33.3784 35.291 33.3271 35.207C33.276 35.1187 33.2294 35.0462 33.1875 34.9902C33.4487 34.771 33.703 34.5145 33.9502 34.2207C34.1975 33.922 34.4267 33.5992 34.6367 33.2539C34.8465 32.9088 35.0256 32.5541 35.1748 32.1904L35.8262 32.4072ZM37.1211 34.7881C37.2487 34.7159 37.3774 34.6418 37.5059 34.5635C37.8092 34.3768 38.0965 34.1874 38.3672 33.9961C38.6423 33.8002 38.8805 33.6116 39.0811 33.4297L39.5645 34.0029C39.3172 34.1942 39.0437 34.3837 38.7451 34.5703C38.4466 34.7522 38.1385 34.9299 37.8213 35.1025C37.5869 35.2285 37.3529 35.3497 37.1211 35.4678V37.3984C37.1211 37.5335 37.1308 37.6361 37.1494 37.7061C37.1727 37.7712 37.2149 37.8155 37.2754 37.8389C37.3407 37.8621 37.4346 37.874 37.5557 37.874H38.7803C38.9013 37.8739 38.9931 37.8394 39.0537 37.7695C39.1143 37.6996 39.1585 37.5733 39.1865 37.3916C39.2145 37.2097 39.2372 36.95 39.2559 36.6143C39.3398 36.6749 39.4411 36.7331 39.5576 36.7891C39.6787 36.8403 39.7857 36.8781 39.8789 36.9014C39.8462 37.293 39.7977 37.6057 39.7324 37.8389C39.6718 38.0722 39.5685 38.2401 39.4238 38.3428C39.2838 38.4454 39.0857 38.4971 38.8291 38.4971H37.4922C37.2265 38.4971 37.0163 38.4646 36.8623 38.3994C36.7132 38.3341 36.6075 38.2196 36.5469 38.0566C36.4862 37.898 36.4561 37.6731 36.4561 37.3838V32.2676H37.1211V34.7881ZM19.4883 34.2061C19.3576 34.6493 19.2015 35.1025 19.0195 35.5645C18.8376 36.0263 18.6341 36.4787 18.4102 36.9219C18.2816 37.1762 18.1457 37.4213 18.0049 37.6572H19.8379V38.2871H14.6094V37.6572H17.3145C17.526 37.3263 17.7222 36.9672 17.8994 36.5791C18.1 36.1452 18.2745 35.7038 18.4238 35.2559C18.5731 34.8079 18.6948 34.3762 18.7881 33.9609L19.4883 34.2061ZM41.2305 37.8047H42.3008V36.8311H41.2305V37.8047ZM44.1006 37.8047H45.1924V36.8311H44.1006V37.8047ZM9.92578 34.9062H8.44434C8.38218 35.1605 8.30866 35.42 8.22461 35.6836C8.12201 36.0053 8.01306 36.3136 7.89648 36.6074C7.85828 36.7077 7.81761 36.8042 7.77832 36.8975L9.24121 36.5742C9.20514 36.4701 9.16777 36.3638 9.12793 36.2568C9.04395 36.0189 8.95996 35.7949 8.87598 35.585L9.4082 35.4385C9.45244 35.5386 9.49675 35.6434 9.54102 35.7529L9.80664 36.4404C9.84869 36.5537 9.88842 36.6656 9.92578 36.7754C10.005 36.9944 10.0633 37.1833 10.1006 37.3418L9.52734 37.5381C9.49999 37.415 9.46189 37.2772 9.41699 37.124C9.1223 37.1953 8.86489 37.2587 8.64551 37.3145C8.35617 37.3845 8.11733 37.4448 7.93066 37.4961C7.74891 37.5427 7.60434 37.5826 7.49707 37.6152C7.38995 37.6478 7.30574 37.6759 7.24512 37.6992C7.21721 37.7108 7.19124 37.7227 7.16797 37.7344L7.10547 37.7695L7.08398 37.6904C7.07464 37.6612 7.06287 37.6288 7.04883 37.5938C7.02555 37.5193 6.9996 37.4424 6.97168 37.3633C6.94376 37.2842 6.91879 37.2182 6.89551 37.167C6.95588 37.1482 7.01236 37.0973 7.06348 37.0137C7.11474 36.9298 7.16772 36.8196 7.22363 36.6846C7.25163 36.6239 7.29144 36.5206 7.34277 36.376C7.39407 36.2268 7.45013 36.0542 7.51074 35.8584C7.57134 35.6626 7.62961 35.4501 7.68555 35.2217C7.71365 35.1158 7.7396 35.0102 7.7627 34.9062H6.83203V34.2969H9.92578V34.9062ZM15.5332 34.3389C15.6358 34.5955 15.7382 34.8689 15.8408 35.1582C15.9435 35.4428 16.0371 35.7228 16.1211 35.998C16.2097 36.2687 16.2797 36.5119 16.3311 36.7266L15.708 36.9854C15.6613 36.7661 15.5957 36.5184 15.5117 36.2432C15.4324 35.9634 15.344 35.6787 15.2461 35.3896C15.1482 35.0959 15.0501 34.8222 14.9521 34.5703L15.5332 34.3389ZM4.38965 36.0127C4.30694 36.0954 4.21808 36.1744 4.12598 36.2529C4.22943 36.3134 4.33658 36.3795 4.44531 36.4531C4.58985 36.5511 4.72566 36.6513 4.85156 36.7539C4.90941 36.8011 4.96176 36.8484 5.00977 36.8936C5.14995 36.7637 5.28002 36.6245 5.39746 36.4746C5.5231 36.3176 5.63079 36.1464 5.72266 35.9629H4.4375C4.42136 35.9792 4.40607 35.9965 4.38965 36.0127ZM17.0176 33.9961C17.1015 34.2526 17.1824 34.5262 17.2617 34.8154C17.341 35.0999 17.4142 35.3801 17.4795 35.6553C17.5448 35.9257 17.5955 36.1714 17.6328 36.3906L16.9893 36.5723C16.9613 36.3531 16.9149 36.1052 16.8496 35.8301C16.789 35.5503 16.7211 35.2657 16.6465 34.9766C16.5718 34.6873 16.4944 34.416 16.415 34.1641L17.0176 33.9961ZM27.4053 36.3613C27.5642 36.3187 27.726 36.274 27.8906 36.2275C27.9006 36.1536 27.9097 36.0791 27.916 36.0049C27.9319 35.8139 27.9422 35.6251 27.9473 35.4385L27.6367 35.5078C27.632 35.326 27.6062 35.1113 27.5596 34.8643C27.5217 34.6373 27.4696 34.4252 27.4053 34.2285V36.3613ZM21.4688 35.1025C21.4687 35.3384 21.4578 35.5907 21.4365 35.8584H22.9951V34.8154H21.4688V35.1025ZM23.6602 35.8584H25.3682V34.8154H23.6602V35.8584ZM29.1621 34.1143L29.3936 34.0518C29.4915 34.2664 29.5755 34.5053 29.6455 34.7666C29.6607 34.8224 29.6747 34.8772 29.6875 34.9297V33.3105H29.1621V34.1143ZM32.543 32.792C32.7063 33.0067 32.8494 33.2477 32.9707 33.5137C33.0918 33.7793 33.176 34.0124 33.2227 34.2129L32.7393 34.4795C32.716 34.3397 32.6738 34.1853 32.6133 34.0176C32.5526 33.8496 32.4783 33.6785 32.3896 33.5059C32.3058 33.3334 32.2119 33.1748 32.1094 33.0303L32.543 32.792ZM31.7871 33.1562C31.8477 33.3381 31.8973 33.5365 31.9346 33.751C31.9766 33.9656 32.0024 34.1507 32.0117 34.3047L31.4863 34.4229C31.4863 34.2689 31.468 34.0846 31.4307 33.8701C31.3934 33.6556 31.3481 33.4551 31.2969 33.2686L31.7871 33.1562ZM45.9346 34.3672H43.5889V32.3789H45.9346V34.3672ZM21.4688 34.1992H22.9951V33.2051H21.4688V34.1992ZM23.6602 34.1992H25.3682V33.2051H23.6602V34.1992ZM3.88574 33.4473C3.98558 33.5076 4.08668 33.5735 4.18652 33.6465C4.3123 33.735 4.42897 33.8258 4.53613 33.9189C4.59215 33.9656 4.64297 34.0105 4.68848 34.0537C4.84781 33.915 4.99361 33.7659 5.12402 33.6045C5.21991 33.4885 5.30531 33.3668 5.37988 33.2402H4.10938C4.03865 33.311 3.96369 33.3796 3.88574 33.4473ZM41.1396 33.835H42.2314V32.9111H41.1396V33.835ZM44.1914 33.835H45.2969V32.9111H44.1914V33.835ZM9.7998 33.2402H7.07715V32.6523H9.7998V33.2402ZM8.26074 25.7031C8.57281 25.7032 8.84348 25.7813 9.07129 25.9385C9.30118 26.0957 9.47926 26.3192 9.60449 26.6084C9.73201 26.8954 9.7959 27.2368 9.7959 27.6309V27.6377C9.79584 28.0339 9.73267 28.3761 9.60742 28.6631C9.48214 28.9499 9.30416 29.172 9.07422 29.3291C8.84642 29.484 8.57508 29.5615 8.26074 29.5615C8.08999 29.5615 7.93023 29.5357 7.78223 29.4834C7.63418 29.4287 7.5042 29.3518 7.39258 29.2539C7.28096 29.156 7.19205 29.0397 7.12598 28.9053H7.06836V30.7412H6.2168V25.7646H7.06836V26.3486H7.12598C7.19428 26.2143 7.28335 26.0995 7.39258 26.0039C7.5042 25.9083 7.63353 25.8336 7.7793 25.7812C7.92496 25.729 8.08555 25.7031 8.26074 25.7031ZM12.3477 25.7031C12.6596 25.7032 12.9295 25.7813 13.1572 25.9385C13.3874 26.0957 13.5651 26.319 13.6904 26.6084C13.818 26.8955 13.8818 27.2367 13.8818 27.6309V27.6377C13.8818 28.034 13.8196 28.3761 13.6943 28.6631C13.5691 28.9499 13.391 29.1719 13.1611 29.3291C12.9334 29.484 12.6619 29.5614 12.3477 29.5615C12.177 29.5615 12.0171 29.5357 11.8691 29.4834C11.7212 29.4288 11.5911 29.3518 11.4795 29.2539C11.3679 29.156 11.279 29.0396 11.2129 28.9053H11.1543V30.7412H10.3037V25.7646H11.1543V26.3486H11.2129C11.2812 26.2143 11.3702 26.0996 11.4795 26.0039C11.5911 25.9082 11.7194 25.8337 11.8652 25.7812C12.0111 25.7288 12.1722 25.7031 12.3477 25.7031ZM23.1836 25.6924C23.5048 25.6924 23.7807 25.7487 24.0107 25.8604C24.243 25.9697 24.4272 26.1225 24.5615 26.3184C24.698 26.5119 24.7826 26.7386 24.8145 26.998V27.0117H24.0107L24.0078 27.002C23.9691 26.8199 23.88 26.6699 23.7412 26.5537C23.6046 26.4376 23.4196 26.38 23.1875 26.3799C22.994 26.3799 22.8274 26.4286 22.6885 26.5264C22.5518 26.6243 22.4469 26.7658 22.374 26.9502C22.3011 27.1348 22.2646 27.3581 22.2646 27.6201V27.627C22.2647 27.8913 22.3011 28.1185 22.374 28.3076C22.4492 28.4941 22.5549 28.6381 22.6914 28.7383C22.828 28.8361 22.994 28.8848 23.1875 28.8848C23.4082 28.8847 23.5864 28.8345 23.7207 28.7344C23.8572 28.6341 23.9516 28.4858 24.0039 28.29L24.0107 28.2764L24.8105 28.2734L24.8076 28.3037C24.7666 28.5566 24.6777 28.7793 24.541 28.9707C24.4067 29.1619 24.2262 29.3109 24.001 29.418C23.7756 29.5227 23.5039 29.5751 23.1875 29.5752C22.8118 29.5752 22.4901 29.4975 22.2236 29.3428C21.9571 29.1878 21.7526 28.9645 21.6113 28.6729C21.4701 28.3812 21.3994 28.0325 21.3994 27.627V27.6201C21.3994 27.217 21.4702 26.872 21.6113 26.585C21.7526 26.2979 21.9571 26.0775 22.2236 25.9248C22.4901 25.7701 22.8102 25.6924 23.1836 25.6924ZM26.0908 27.9863C26.0909 28.2755 26.1479 28.4929 26.2617 28.6387C26.3757 28.7845 26.5619 28.8574 26.8193 28.8574C26.9558 28.8574 27.077 28.8369 27.1816 28.7959C27.2885 28.7526 27.3777 28.691 27.4482 28.6113C27.5188 28.5316 27.572 28.4357 27.6084 28.3242C27.6449 28.2103 27.6631 28.0827 27.6631 27.9414V25.7646H28.5146V29.5H27.6631V28.9326H27.6055C27.5485 29.0648 27.4687 29.1803 27.3662 29.2783C27.2638 29.3739 27.1404 29.4476 26.9971 29.5C26.8536 29.5501 26.6915 29.5751 26.5117 29.5752C26.2338 29.5752 25.9996 29.5221 25.8105 29.415C25.6215 29.3057 25.4795 29.1467 25.3838 28.9395C25.2881 28.7298 25.2402 28.4769 25.2402 28.1807V25.7646H26.0908V27.9863ZM40.9912 25.6924C41.3625 25.6924 41.6817 25.7699 41.9482 25.9248C42.217 26.0797 42.4245 26.3025 42.5703 26.5918C42.716 26.8811 42.7891 27.2261 42.7891 27.627V27.6338C42.7891 28.0371 42.7161 28.3835 42.5703 28.6729C42.4269 28.962 42.2208 29.1856 41.9521 29.3428C41.6856 29.4977 41.3648 29.5752 40.9912 29.5752C40.6201 29.5752 40.3 29.4975 40.0312 29.3428C39.7625 29.1856 39.555 28.9621 39.4092 28.6729C39.2656 28.3835 39.1934 28.0371 39.1934 27.6338V27.627C39.1934 27.2282 39.2663 26.8841 39.4121 26.5947C39.5579 26.3031 39.7647 26.0797 40.0312 25.9248C40.3 25.7701 40.62 25.6924 40.9912 25.6924ZM30.0889 26.3594H30.1465C30.2125 26.225 30.3016 26.1087 30.4131 26.0107C30.5247 25.9128 30.6547 25.8376 30.8027 25.7852C30.9508 25.7305 31.1104 25.7031 31.2812 25.7031C31.5957 25.7031 31.8669 25.7812 32.0947 25.9385C32.3249 26.0934 32.5026 26.3161 32.6279 26.6055C32.7531 26.8925 32.8164 27.2346 32.8164 27.6309V27.6377C32.8163 28.0293 32.7525 28.37 32.625 28.6592C32.4997 28.9484 32.3218 29.1719 32.0918 29.3291C31.8639 29.484 31.5934 29.5615 31.2812 29.5615C31.106 29.5615 30.9455 29.5364 30.7998 29.4863C30.6541 29.434 30.5247 29.3602 30.4131 29.2646C30.3038 29.1668 30.2148 29.0503 30.1465 28.916H30.0889V29.5H29.2373V24.3184H30.0889V26.3594ZM34.8242 25.6924C35.1478 25.6924 35.4212 25.7425 35.6445 25.8428C35.8678 25.9408 36.0381 26.0843 36.1543 26.2734C36.2704 26.4602 36.3281 26.6853 36.3281 26.9473V29.5H35.4873V28.9873H35.4297C35.3614 29.1057 35.2723 29.2084 35.1631 29.2949C35.0561 29.3814 34.9328 29.4476 34.7939 29.4932C34.6551 29.5387 34.5021 29.5615 34.3359 29.5615C34.1012 29.5615 33.89 29.5159 33.7031 29.4248C33.5187 29.3337 33.3727 29.2052 33.2656 29.0391C33.1609 28.8706 33.1085 28.672 33.1084 28.4443V28.4375C33.1084 28.2165 33.1631 28.0257 33.2725 27.8662C33.3818 27.7044 33.543 27.5784 33.7549 27.4873C33.9668 27.3962 34.2244 27.3421 34.5273 27.3262L35.4873 27.2666V26.9473C35.4873 26.7604 35.4281 26.6175 35.3096 26.5195C35.1911 26.4193 35.0156 26.3691 34.7832 26.3691C34.5897 26.3691 34.4316 26.4035 34.3086 26.4717C34.1856 26.5378 34.1019 26.6328 34.0586 26.7559L34.0557 26.7695H33.252L33.2559 26.7383C33.2832 26.5287 33.3653 26.3457 33.502 26.1885C33.6387 26.0313 33.8193 25.9089 34.0449 25.8223C34.2705 25.7357 34.5303 25.6924 34.8242 25.6924ZM38.125 25.7646H38.9111V26.4238H38.125V28.3076C38.1251 28.4919 38.1638 28.6274 38.2412 28.7139C38.321 28.7981 38.4487 28.8408 38.624 28.8408C38.6854 28.8408 38.7357 28.8392 38.7744 28.8369C38.8154 28.8324 38.8611 28.8278 38.9111 28.8232V29.4795C38.852 29.4909 38.7834 29.5 38.7061 29.5068C38.6311 29.5137 38.5525 29.5176 38.4707 29.5176C38.0424 29.5176 37.7331 29.4384 37.5439 29.2812C37.3548 29.124 37.2607 28.8665 37.2607 28.5088V26.4238H36.6797V25.7646H37.2607V24.8486H38.125V25.7646ZM5.80859 29.5H4.88574L4.47461 28.2256H2.64746L2.23633 29.5H1.31348L3.06348 24.5684H4.05469L5.80859 29.5ZM16.877 29.5H15.9951V24.5684H16.877V29.5ZM19.6406 25.6924C20.0575 25.6924 20.3767 25.8132 20.5977 26.0547C20.8186 26.2962 20.9297 26.6397 20.9297 27.084V29.5H20.0781V27.2822C20.0781 26.9908 20.0164 26.7718 19.8936 26.626C19.7728 26.4802 19.5835 26.4073 19.3262 26.4072C19.1576 26.4072 19.0117 26.4444 18.8887 26.5195C18.7657 26.5947 18.6715 26.7012 18.6055 26.8379C18.5395 26.9746 18.5059 27.1365 18.5059 27.3232V29.5H17.6553V25.7646H18.5059V26.3389H18.5645C18.6533 26.1361 18.7878 25.9772 18.9678 25.8633C19.1477 25.7496 19.372 25.6924 19.6406 25.6924ZM45.3516 25.7168C45.4151 25.7236 45.4679 25.7328 45.5088 25.7441V26.5059C45.4404 26.4899 45.3704 26.4785 45.2998 26.4717C45.2316 26.4626 45.16 26.458 45.085 26.458C44.8958 26.458 44.7301 26.4938 44.5889 26.5645C44.4477 26.6351 44.3382 26.7361 44.2607 26.8682C44.1833 26.998 44.1445 27.1524 44.1445 27.3301V29.5H43.2939V25.7646H44.1445V26.3389H44.2031C44.2669 26.1384 44.3809 25.9818 44.5449 25.8701C44.7112 25.7586 44.9172 25.7031 45.1631 25.7031C45.2269 25.7031 45.29 25.7077 45.3516 25.7168ZM34.6465 27.8838C34.4073 27.8975 34.2311 27.9476 34.1172 28.0342C34.0033 28.1208 33.9463 28.2415 33.9463 28.3965V28.4033C33.9464 28.5626 34.0063 28.6866 34.127 28.7754C34.25 28.8643 34.4066 28.9092 34.5957 28.9092C34.7664 28.9091 34.9194 28.8749 35.0537 28.8066C35.1881 28.7383 35.2937 28.6454 35.3711 28.5293C35.4485 28.4109 35.4872 28.2778 35.4873 28.1299V27.8291L34.6465 27.8838ZM40.9912 26.3799C40.7954 26.3799 40.6282 26.4301 40.4893 26.5303C40.3503 26.6282 40.2438 26.7702 40.1709 26.957C40.098 27.1416 40.0615 27.3665 40.0615 27.6309V27.6377C40.0616 27.8995 40.098 28.1238 40.1709 28.3105C40.2438 28.4973 40.3487 28.6403 40.4854 28.7383C40.6243 28.8361 40.7932 28.8848 40.9912 28.8848C41.187 28.8847 41.3536 28.8361 41.4902 28.7383C41.6291 28.638 41.7357 28.495 41.8086 28.3105C41.8814 28.1239 41.9179 27.8994 41.918 27.6377V27.6309C41.918 27.3667 41.8814 27.1416 41.8086 26.957C41.7357 26.7704 41.629 26.6282 41.4902 26.5303C41.3536 26.4301 41.1871 26.3799 40.9912 26.3799ZM7.99414 26.4209C7.80068 26.4209 7.63336 26.4696 7.49219 26.5674C7.35322 26.6631 7.24446 26.8015 7.16699 26.9814C7.09192 27.1614 7.05469 27.3765 7.05469 27.627V27.6338C7.05469 27.8844 7.0918 28.1009 7.16699 28.2832C7.24446 28.4632 7.35387 28.6022 7.49512 28.7002C7.63635 28.7958 7.80282 28.8438 7.99414 28.8438C8.18771 28.8437 8.35423 28.7959 8.49316 28.7002C8.63208 28.6022 8.73929 28.4631 8.81445 28.2832C8.88957 28.1011 8.92768 27.8858 8.92773 27.6377V27.6309C8.92773 27.3782 8.8895 27.1614 8.81445 26.9814C8.73929 26.8015 8.63207 26.6631 8.49316 26.5674C8.35423 26.4694 8.18772 26.4209 7.99414 26.4209ZM12.0811 26.4209C11.8874 26.4209 11.7194 26.4694 11.5781 26.5674C11.4391 26.6631 11.3314 26.8014 11.2539 26.9814C11.1788 27.1614 11.1406 27.3764 11.1406 27.627V27.6338C11.1406 27.8844 11.1787 28.1009 11.2539 28.2832C11.3314 28.4631 11.4408 28.6023 11.582 28.7002C11.7232 28.7957 11.8898 28.8438 12.0811 28.8438C12.2745 28.8437 12.4412 28.7958 12.5801 28.7002C12.7189 28.6022 12.8262 28.4631 12.9014 28.2832C12.9765 28.1011 13.0136 27.8858 13.0137 27.6377V27.6309C13.0137 27.3782 12.9764 27.1613 12.9014 26.9814C12.8262 26.8016 12.7189 26.6631 12.5801 26.5674C12.4412 26.4695 12.2745 26.421 12.0811 26.4209ZM31.0146 26.4209C30.8232 26.4209 30.6569 26.4694 30.5156 26.5674C30.3744 26.6654 30.265 26.8044 30.1875 26.9844C30.1123 27.1644 30.0752 27.3802 30.0752 27.6309V27.6377C30.0752 27.8858 30.1124 28.101 30.1875 28.2832C30.265 28.4632 30.3737 28.6022 30.5127 28.7002C30.6539 28.7957 30.8211 28.8438 31.0146 28.8438C31.2083 28.8438 31.3747 28.7959 31.5137 28.7002C31.6527 28.6022 31.7598 28.4632 31.835 28.2832C31.9101 28.1033 31.9482 27.8881 31.9482 27.6377V27.6309C31.9482 27.3802 31.9101 27.1644 31.835 26.9844C31.7598 26.8021 31.6527 26.6631 31.5137 26.5674C31.3747 26.4694 31.2083 26.4209 31.0146 26.4209ZM2.86719 27.5449H4.25488L3.58984 25.4844H3.53223L2.86719 27.5449ZM27.2773 4.23145C27.8581 4.25526 29.4877 4.46227 30.5342 5.96777C30.4466 6.02113 28.5904 7.08522 28.6104 9.29688C28.6353 11.9426 30.9699 12.825 31 12.8379C30.9802 12.8999 30.6262 14.0942 29.7676 15.3271C29.0255 16.3931 28.2551 17.4551 27.042 17.4775C25.8497 17.499 25.4659 16.7822 24.1025 16.7822C22.7397 16.7822 22.3134 17.4554 21.1846 17.499C20.0135 17.5423 19.1213 16.346 18.373 15.2842C16.8439 13.1116 15.6752 9.14446 17.2441 6.4668C18.0236 5.13705 19.4176 4.29513 20.9297 4.27344C22.0797 4.25199 23.1651 5.03402 23.8682 5.03418C24.5708 5.03418 25.8904 4.0934 27.2773 4.23145ZM27.2949 0C27.409 1.02443 26.9909 2.05428 26.3691 2.79395C25.7472 3.53399 24.7267 4.10918 23.7275 4.0332C23.5915 3.02899 24.0956 1.98076 24.6719 1.32617C25.3147 0.586905 26.3986 0.035521 27.2949 0Z" />
</svg>
